<svg xmlns="http://www.w3.org/2000/svg" width="1200" height="630" viewBox="0 0 1200 630">
  <defs>
    <linearGradient id="bg" x1="0" y1="0" x2="1" y2="1">
      <stop offset="0%" stop-color="#0a0f1a" />
      <stop offset="100%" stop-color="#111e2b" />
    </linearGradient>
    <linearGradient id="accent" x1="0" y1="0" x2="1" y2="0">
      <stop offset="0%" stop-color="#63e6be" />
      <stop offset="100%" stop-color="#4dabf7" />
    </linearGradient>
  </defs>
  <rect width="1200" height="630" fill="url(#bg)" />
  <g opacity="0.18" stroke="#ffffff">
    <g stroke-width="1">
      <path d="M0 90 H1200" />
      <path d="M0 180 H1200" />
      <path d="M0 270 H1200" />
      <path d="M0 360 H1200" />
      <path d="M0 450 H1200" />
      <path d="M0 540 H1200" />
    </g>
    <g stroke-width="1">
      <path d="M100 0 V630" />
      <path d="M200 0 V630" />
      <path d="M300 0 V630" />
      <path d="M400 0 V630" />
      <path d="M500 0 V630" />
      <path d="M600 0 V630" />
      <path d="M700 0 V630" />
      <path d="M800 0 V630" />
      <path d="M900 0 V630" />
      <path d="M1000 0 V630" />
      <path d="M1100 0 V630" />
    </g>
  </g>

  <g font-family="'Space Grotesk', 'JetBrains Mono', system-ui, sans-serif" fill="#edf2f7">
    <text x="120" y="220" font-size="56" font-weight="700">DeadTechGuy</text>
    <rect x="120" y="236" width="320" height="4" fill="url(#accent)" />
    <text x="120" y="300" font-size="24" fill="rgba(237,242,247,0.75)">Building, breaking, and learning in public.</text>
    <text x="120" y="340" font-size="24" fill="rgba(237,242,247,0.75)">ML notes, experiments, and tech thoughts.</text>
  </g>

  <g fill="#63e6be" opacity="0.9">
    <circle cx="980" cy="220" r="8" />
    <circle cx="1020" cy="260" r="8" />
    <circle cx="1060" cy="220" r="8" />
    <circle cx="1100" cy="260" r="8" />
  </g>

  <text x="120" y="560" font-size="18" fill="rgba(237,242,247,0.55)" font-family="'JetBrains Mono', monospace">deadtechguy.fun</text>
</svg>
